<?xml version="1.0" encoding="UTF-8"?>
<svg xmlns="http://www.w3.org/2000/svg" width="64" height="64" viewBox="0 0 512 512">
  <circle cx="256" cy="256" r="256" fill="#b57ae6" />
  <path d="M59 412h395l-40 43H102Z" fill="#473b76" />
  <rect x="34" y="150" width="314" height="260" rx="20" fill="#bad0e7" stroke="#473b76" stroke-width="18" />
  <path
    d="M50 182h312c0 81-66 147-147 147H196c-81 0-146-66-146-147Z"
    fill="#90b8dc"
    stroke="#473b76"
    stroke-width="14"
    stroke-linejoin="round" />
  <path d="M64 170h298c8 0 14 6 14 14v28H50v-28c0-8 6-14 14-14Z" fill="#90b8dc" opacity=".9" />
  <path d="M178 136h92v46h-28v-20h-36v20h-28Z" fill="#ff8f99" stroke="#473b76" stroke-width="18" stroke-linejoin="round" />
  <rect x="178" y="289" width="90" height="44" rx="20" fill="#ff8f99" stroke="#473b76" stroke-width="18" />
  <rect x="355" y="212" width="107" height="191" rx="18" fill="#f2f2f2" stroke="#473b76" stroke-width="18" />
  <rect x="379" y="244" width="34" height="34" rx="4" fill="#ff8f99" />
  <rect x="433" y="244" width="40" height="14" rx="7" fill="#5a5386" />
  <rect x="433" y="278" width="40" height="14" rx="7" fill="#5a5386" />
  <rect x="379" y="310" width="94" height="15" rx="7.5" fill="#5a5386" />
  <rect x="379" y="343" width="94" height="15" rx="7.5" fill="#5a5386" />
  <rect x="379" y="376" width="94" height="15" rx="7.5" fill="#5a5386" />
</svg>
